<svg version="1.1" viewBox="0.0 0.0 214.95275590551182 264.6981627296588" fill="none" stroke="none" stroke-linecap="square" stroke-miterlimit="10" xmlns:xlink="http://www.w3.org/1999/xlink" xmlns="http://www.w3.org/2000/svg"><clipPath id="p.0"><path d="m0 0l214.95276 0l0 264.69815l-214.95276 0l0 -264.69815z" clip-rule="nonzero"/></clipPath><g clip-path="url(#p.0)"><path fill="#000000" fill-opacity="0.0" d="m0 0l214.95276 0l0 264.69815l-214.95276 0z" fill-rule="evenodd"/><path fill="#261132" d="m85.86614 63.93176l0 0c0 -10.967419 8.890846 -19.858269 19.858269 -19.858269l0 0c5.266739 0 10.317764 2.092205 14.041916 5.816353c3.724144 3.7241478 5.816353 8.775177 5.816353 14.041916l0 0c0 10.967419 -8.890854 19.858265 -19.858269 19.858265l0 0c-10.9674225 0 -19.858269 -8.890846 -19.858269 -19.858265z" fill-rule="evenodd"/><path stroke="#ffffff" stroke-width="1.0" stroke-linejoin="round" stroke-linecap="butt" d="m85.86614 63.93176l0 0c0 -10.967419 8.890846 -19.858269 19.858269 -19.858269l0 0c5.266739 0 10.317764 2.092205 14.041916 5.816353c3.724144 3.7241478 5.816353 8.775177 5.816353 14.041916l0 0c0 10.967419 -8.890854 19.858265 -19.858269 19.858265l0 0c-10.9674225 0 -19.858269 -8.890846 -19.858269 -19.858265z" fill-rule="evenodd"/><path fill="#000000" fill-opacity="0.0" d="m92.84252 111.585304l0 0c0 -7.1144714 5.767418 -12.881889 12.881889 -12.881889l0 0c3.4164886 0 6.6930466 1.357193 9.108871 3.773018c2.415825 2.4158173 3.773018 5.692383 3.773018 9.108871l0 0c0 7.1144714 -5.767418 12.881889 -12.881889 12.881889l0 0c-7.1144714 0 -12.881889 -5.767418 -12.881889 -12.881889z" fill-rule="evenodd"/><path stroke="#261132" stroke-width="3.0" stroke-linejoin="round" stroke-linecap="butt" d="m92.84252 111.585304l0 0c0 -7.1144714 5.767418 -12.881889 12.881889 -12.881889l0 0c3.4164886 0 6.6930466 1.357193 9.108871 3.773018c2.415825 2.4158173 3.773018 5.692383 3.773018 9.108871l0 0c0 7.1144714 -5.767418 12.881889 -12.881889 12.881889l0 0c-7.1144714 0 -12.881889 -5.767418 -12.881889 -12.881889z" fill-rule="evenodd"/><path fill="#000000" fill-opacity="0.0" d="m92.84252 152.26247l0 0c0 -7.1144714 5.767418 -12.881882 12.881889 -12.881882l0 0c3.4164886 0 6.6930466 1.357193 9.108871 3.7730103c2.415825 2.4158173 3.773018 5.692383 3.773018 9.108871l0 0c0 7.1144714 -5.767418 12.881897 -12.881889 12.881897l0 0c-7.1144714 0 -12.881889 -5.7674255 -12.881889 -12.881897z" fill-rule="evenodd"/><path stroke="#261132" stroke-width="3.0" stroke-linejoin="round" stroke-linecap="butt" d="m92.84252 152.26247l0 0c0 -7.1144714 5.767418 -12.881882 12.881889 -12.881882l0 0c3.4164886 0 6.6930466 1.357193 9.108871 3.7730103c2.415825 2.4158173 3.773018 5.692383 3.773018 9.108871l0 0c0 7.1144714 -5.767418 12.881897 -12.881889 12.881897l0 0c-7.1144714 0 -12.881889 -5.7674255 -12.881889 -12.881897z" fill-rule="evenodd"/><path fill="#000000" fill-opacity="0.0" d="m92.84252 192.93964l0 0c0 -7.1144714 5.767418 -12.881897 12.881889 -12.881897l0 0c3.4164886 0 6.6930466 1.357193 9.108871 3.7730255c2.415825 2.4158173 3.773018 5.692383 3.773018 9.108871l0 0c0 7.1144714 -5.767418 12.881882 -12.881889 12.881882l0 0c-7.1144714 0 -12.881889 -5.7674103 -12.881889 -12.881882z" fill-rule="evenodd"/><path stroke="#261132" stroke-width="3.0" stroke-linejoin="round" stroke-linecap="butt" d="m92.84252 192.93964l0 0c0 -7.1144714 5.767418 -12.881897 12.881889 -12.881897l0 0c3.4164886 0 6.6930466 1.357193 9.108871 3.7730255c2.415825 2.4158173 3.773018 5.692383 3.773018 9.108871l0 0c0 7.1144714 -5.767418 12.881882 -12.881889 12.881882l0 0c-7.1144714 0 -12.881889 -5.7674103 -12.881889 -12.881882z" fill-rule="evenodd"/><path fill="#261132" d="m85.86614 240.59317l0 0c0 -10.967407 8.890846 -19.858261 19.858269 -19.858261l0 0c5.266739 0 10.317764 2.0922089 14.041916 5.816345c3.724144 3.7241516 5.816353 8.775177 5.816353 14.041916l0 0c0 10.9674225 -8.890854 19.858276 -19.858269 19.858276l0 0c-10.9674225 0 -19.858269 -8.890854 -19.858269 -19.858276z" fill-rule="evenodd"/><path stroke="#ffffff" stroke-width="1.0" stroke-linejoin="round" stroke-linecap="butt" d="m85.86614 240.59317l0 0c0 -10.967407 8.890846 -19.858261 19.858269 -19.858261l0 0c5.266739 0 10.317764 2.0922089 14.041916 5.816345c3.724144 3.7241516 5.816353 8.775177 5.816353 14.041916l0 0c0 10.9674225 -8.890854 19.858276 -19.858269 19.858276l0 0c-10.9674225 0 -19.858269 -8.890854 -19.858269 -19.858276z" fill-rule="evenodd"/></g></svg>