<svg version="1.1" viewBox="0.0 0.0 100.0 219.78215223097112" fill="none" stroke="none" stroke-linecap="square" stroke-miterlimit="10" xmlns:xlink="http://www.w3.org/1999/xlink" xmlns="http://www.w3.org/2000/svg"><clipPath id="p.0"><path d="m0 0l100.0 0l0 219.78215l-100.0 0l0 -219.78215z" clip-rule="nonzero"/></clipPath><g clip-path="url(#p.0)"><path fill="#000000" fill-opacity="0.0" d="m0 0l100.0 0l0 219.78215l-100.0 0z" fill-rule="evenodd"/><path fill="#17bebb" d="m30.141733 21.560368l0 0c0 -10.967419 8.890848 -19.858269 19.858267 -19.858269l0 0c5.266739 0 10.317768 2.0922046 14.041916 5.816352c3.724144 3.7241478 5.816353 8.775175 5.816353 14.041916l0 0c0 10.967419 -8.89085 19.858269 -19.858269 19.858269l0 0c-10.967419 0 -19.858267 -8.89085 -19.858267 -19.858269z" fill-rule="evenodd"/><path stroke="#ffffff" stroke-width="1.0" stroke-linejoin="round" stroke-linecap="butt" d="m30.141733 21.560368l0 0c0 -10.967419 8.890848 -19.858269 19.858267 -19.858269l0 0c5.266739 0 10.317768 2.0922046 14.041916 5.816352c3.724144 3.7241478 5.816353 8.775175 5.816353 14.041916l0 0c0 10.967419 -8.89085 19.858269 -19.858269 19.858269l0 0c-10.967419 0 -19.858267 -8.89085 -19.858267 -19.858269z" fill-rule="evenodd"/><path fill="#000000" fill-opacity="0.0" d="m37.11811 69.21391l0 0c0 -7.1144753 5.767418 -12.881893 12.881889 -12.881893l0 0c3.4164886 0 6.6930504 1.3571968 9.108871 3.773018c2.415825 2.415825 3.773018 5.6923866 3.773018 9.108875l0 0c0 7.1144714 -5.767418 12.881889 -12.881889 12.881889l0 0c-7.1144714 0 -12.881889 -5.767418 -12.881889 -12.881889z" fill-rule="evenodd"/><path stroke="#17bebb" stroke-width="3.0" stroke-linejoin="round" stroke-linecap="butt" d="m37.11811 69.21391l0 0c0 -7.1144753 5.767418 -12.881893 12.881889 -12.881893l0 0c3.4164886 0 6.6930504 1.3571968 9.108871 3.773018c2.415825 2.415825 3.773018 5.6923866 3.773018 9.108875l0 0c0 7.1144714 -5.767418 12.881889 -12.881889 12.881889l0 0c-7.1144714 0 -12.881889 -5.767418 -12.881889 -12.881889z" fill-rule="evenodd"/><path fill="#000000" fill-opacity="0.0" d="m37.11811 109.891075l0 0c0 -7.1144714 5.767418 -12.881889 12.881889 -12.881889l0 0c3.4164886 0 6.6930504 1.357193 9.108871 3.773018c2.415825 2.415825 3.773018 5.692383 3.773018 9.108871l0 0c0 7.1144714 -5.767418 12.881889 -12.881889 12.881889l0 0c-7.1144714 0 -12.881889 -5.767418 -12.881889 -12.881889z" fill-rule="evenodd"/><path stroke="#17bebb" stroke-width="3.0" stroke-linejoin="round" stroke-linecap="butt" d="m37.11811 109.891075l0 0c0 -7.1144714 5.767418 -12.881889 12.881889 -12.881889l0 0c3.4164886 0 6.6930504 1.357193 9.108871 3.773018c2.415825 2.415825 3.773018 5.692383 3.773018 9.108871l0 0c0 7.1144714 -5.767418 12.881889 -12.881889 12.881889l0 0c-7.1144714 0 -12.881889 -5.767418 -12.881889 -12.881889z" fill-rule="evenodd"/><path fill="#000000" fill-opacity="0.0" d="m37.11811 150.56824l0 0c0 -7.1144714 5.767418 -12.881882 12.881889 -12.881882l0 0c3.4164886 0 6.6930504 1.357193 9.108871 3.7730103c2.415825 2.4158325 3.773018 5.692383 3.773018 9.108871l0 0c0 7.1144714 -5.767418 12.881897 -12.881889 12.881897l0 0c-7.1144714 0 -12.881889 -5.7674255 -12.881889 -12.881897z" fill-rule="evenodd"/><path stroke="#17bebb" stroke-width="3.0" stroke-linejoin="round" stroke-linecap="butt" d="m37.11811 150.56824l0 0c0 -7.1144714 5.767418 -12.881882 12.881889 -12.881882l0 0c3.4164886 0 6.6930504 1.357193 9.108871 3.7730103c2.415825 2.4158325 3.773018 5.692383 3.773018 9.108871l0 0c0 7.1144714 -5.767418 12.881897 -12.881889 12.881897l0 0c-7.1144714 0 -12.881889 -5.7674255 -12.881889 -12.881897z" fill-rule="evenodd"/><path fill="#17bebb" d="m30.141733 198.22179l0 0c0 -10.9674225 8.890848 -19.858276 19.858267 -19.858276l0 0c5.266739 0 10.317768 2.0922089 14.041916 5.8163605c3.724144 3.7241516 5.816353 8.775177 5.816353 14.041916l0 0c0 10.9674225 -8.89085 19.858261 -19.858269 19.858261l0 0c-10.967419 0 -19.858267 -8.890839 -19.858267 -19.858261z" fill-rule="evenodd"/><path stroke="#ffffff" stroke-width="1.0" stroke-linejoin="round" stroke-linecap="butt" d="m30.141733 198.22179l0 0c0 -10.9674225 8.890848 -19.858276 19.858267 -19.858276l0 0c5.266739 0 10.317768 2.0922089 14.041916 5.8163605c3.724144 3.7241516 5.816353 8.775177 5.816353 14.041916l0 0c0 10.9674225 -8.89085 19.858261 -19.858269 19.858261l0 0c-10.967419 0 -19.858267 -8.890839 -19.858267 -19.858261z" fill-rule="evenodd"/></g></svg>